<svg version="1.1" viewBox="0.0 0.0 459.0 324.0" fill="none" stroke="none" stroke-linecap="square" stroke-miterlimit="10" width="459" height="324" xmlns:xlink="http://www.w3.org/1999/xlink" xmlns="http://www.w3.org/2000/svg"><path fill="#ffffff" d="M0 0L459.0 0L459.0 324.0L0 324.0L0 0Z" fill-rule="nonzero"/><path stroke="#333333" stroke-width="1.0" stroke-linecap="butt" d="M40.5 21.5L40.5 293.5" fill-rule="nonzero"/><path stroke="#d9d9d9" stroke-width="1.0" stroke-linecap="butt" d="M137.5 21.5L137.5 293.5" fill-rule="nonzero"/><path stroke="#d9d9d9" stroke-width="1.0" stroke-linecap="butt" d="M234.5 21.5L234.5 293.5" fill-rule="nonzero"/><path stroke="#d9d9d9" stroke-width="1.0" stroke-linecap="butt" d="M331.5 21.5L331.5 293.5" fill-rule="nonzero"/><path stroke="#d9d9d9" stroke-width="1.0" stroke-linecap="butt" d="M428.5 21.5L428.5 293.5" fill-rule="nonzero"/><path stroke="#333333" stroke-width="1.0" stroke-linecap="butt" d="M35.5 293.5L442.5 293.5" fill-rule="nonzero"/><path stroke="#d9d9d9" stroke-width="1.0" stroke-linecap="butt" d="M35.5 202.5L442.5 202.5" fill-rule="nonzero"/><path stroke="#d9d9d9" stroke-width="1.0" stroke-linecap="butt" d="M35.5 111.5L442.5 111.5" fill-rule="nonzero"/><path stroke="#d9d9d9" stroke-width="1.0" stroke-linecap="butt" d="M35.5 21.5L442.5 21.5" fill-rule="nonzero"/><clipPath id="id_0"><path d="M35.7 21.2L442.8 21.2L442.8 293.3L35.7 293.3L35.7 21.2Z" clip-rule="nonzero"/></clipPath><path stroke="#4472c4" stroke-width="2.0" stroke-linecap="butt" clip-path="url(#id_0)" d="M40.580124 292.7558L41.745342 291.73816L46.40622 288.97906L65.04973 278.45966L139.62376 235.70187L263.91382 162.54326L437.91986 60.41505" fill-rule="nonzero"/><path fill="#4472c4" clip-path="url(#id_0)" d="M44.080124 292.7558C44.080124 294.68878 42.513123 296.2558 40.580124 296.2558C38.64713 296.2558 37.080124 294.68878 37.080124 292.7558C37.080124 290.8228 38.64713 289.2558 40.580124 289.2558C42.513123 289.2558 44.080124 290.8228 44.080124 292.7558Z" fill-rule="nonzero"/><path fill="#4472c4" clip-path="url(#id_0)" d="M45.245342 291.73816C45.245342 293.67114 43.67834 295.23816 41.745342 295.23816C39.812347 295.23816 38.245342 293.67114 38.245342 291.73816C38.245342 289.80515 39.812347 288.23816 41.745342 288.23816C43.67834 288.23816 45.245342 289.80515 45.245342 291.73816Z" fill-rule="nonzero"/><path fill="#4472c4" clip-path="url(#id_0)" d="M49.90622 288.97906C49.90622 290.91205 48.33922 292.47906 46.40622 292.47906C44.473225 292.47906 42.90622 290.91205 42.90622 288.97906C42.90622 287.04605 44.473225 285.47906 46.40622 285.47906C48.33922 285.47906 49.90622 287.04605 49.90622 288.97906Z" fill-rule="nonzero"/><path fill="#4472c4" clip-path="url(#id_0)" d="M68.54973 278.45966C68.54973 280.39267 66.98273 281.95966 65.04973 281.95966C63.11673 281.95966 61.54973 280.39267 61.54973 278.45966C61.54973 276.52667 63.11673 274.95966 65.04973 274.95966C66.98273 274.95966 68.54973 276.52667 68.54973 278.45966Z" fill-rule="nonzero"/><path fill="#4472c4" clip-path="url(#id_0)" d="M143.12376 235.70187C143.12376 237.63487 141.55675 239.20187 139.62376 239.20187C137.69077 239.20187 136.12376 237.63487 136.12376 235.70187C136.12376 233.76888 137.69077 232.20187 139.62376 232.20187C141.55675 232.20187 143.12376 233.76888 143.12376 235.70187Z" fill-rule="nonzero"/><path fill="#4472c4" clip-path="url(#id_0)" d="M267.41382 162.54326C267.41382 164.47624 265.8468 166.04326 263.91382 166.04326C261.9808 166.04326 260.41382 164.47624 260.41382 162.54326C260.41382 160.61026 261.9808 159.04326 263.91382 159.04326C265.8468 159.04326 267.41382 160.61026 267.41382 162.54326Z" fill-rule="nonzero"/><path fill="#4472c4" clip-path="url(#id_0)" d="M441.41986 60.41505C441.41986 62.34805 439.85287 63.91505 437.91986 63.91505C435.98688 63.91505 434.41986 62.34805 434.41986 60.41505C434.41986 58.482056 435.98688 56.91505 437.91986 56.91505C439.85287 56.91505 441.41986 58.482056 441.41986 60.41505Z" fill-rule="nonzero"/><path fill="#595959" d="M30.45 292.4406Q30.45 293.09686 30.340626 293.64374Q30.246876 294.175 29.996876 294.5656Q29.7625 294.95624 29.371876 295.175Q28.996876 295.3781 28.41875 295.3781Q27.8875 295.3781 27.5125 295.1906Q27.153126 295.0031 26.91875 294.6281Q26.7 294.2531 26.60625 293.72186Q26.5125 293.175 26.5125 292.47186Q26.5125 291.8156 26.621876 291.28436Q26.73125 290.7375 26.965626 290.34686Q27.2 289.95624 27.590626 289.7531Q27.98125 289.53436 28.54375 289.53436Q29.075 289.53436 29.434376 289.72186Q29.809376 289.90936 30.028126 290.28436Q30.2625 290.65936 30.35625 291.20624Q30.45 291.7375 30.45 292.4406ZM29.66875 292.5031Q29.66875 292.0656 29.6375 291.7375Q29.621876 291.39374 29.559376 291.14374Q29.496876 290.8781 29.403126 290.6906Q29.309376 290.5031 29.16875 290.3781Q29.04375 290.2531 28.871876 290.20624Q28.7 290.14374 28.496876 290.14374Q28.121876 290.14374 27.8875 290.33124Q27.653126 290.5031 27.5125 290.8156Q27.3875 291.1125 27.340626 291.53436Q27.29375 291.9406 27.29375 292.40936Q27.29375 293.05 27.35625 293.5031Q27.41875 293.9406 27.559376 294.22186Q27.7 294.5031 27.91875 294.64374Q28.153126 294.76874 28.465626 294.76874Q28.715626 294.76874 28.903126 294.6906Q29.090626 294.6125 29.215626 294.47186Q29.35625 294.3156 29.434376 294.1125Q29.528126 293.89374 29.575 293.64374Q29.6375 293.39374 29.653126 293.1125Q29.66875 292.8156 29.66875 292.5031Z" fill-rule="nonzero"/><path fill="#595959" d="M25.23125 202.77188Q25.23125 203.225 25.075 203.58438Q24.934376 203.94376 24.653126 204.19376Q24.371876 204.42813 23.98125 204.55313Q23.590626 204.67813 23.10625 204.67813Q22.840626 204.67813 22.60625 204.64688Q22.371876 204.61563 22.184376 204.56876Q21.996876 204.50626 21.871876 204.45938Q21.7625 204.39688 21.73125 204.36563Q21.7 204.33438 21.684376 204.30313Q21.66875 204.27188 21.653126 204.24063Q21.653126 204.20938 21.6375 204.14688Q21.6375 204.08438 21.6375 204.00626Q21.6375 203.94376 21.6375 203.88126Q21.653126 203.81876 21.66875 203.7875Q21.7 203.74063 21.715626 203.725Q21.746876 203.70938 21.778126 203.70938Q21.809376 203.70938 21.903126 203.77188Q21.996876 203.81876 22.153126 203.88126Q22.309376 203.94376 22.54375 204.00626Q22.778126 204.05313 23.090626 204.05313Q23.3875 204.05313 23.621876 203.99063Q23.871876 203.9125 24.04375 203.77188Q24.23125 203.61563 24.325 203.39688Q24.434376 203.1625 24.434376 202.83438Q24.434376 202.56876 24.340626 202.36563Q24.2625 202.14688 24.075 202.02188Q23.903126 201.88126 23.621876 201.81876Q23.35625 201.74063 22.98125 201.74063Q22.715626 201.74063 22.5125 201.77188Q22.325 201.7875 22.16875 201.7875Q22.04375 201.7875 21.98125 201.74063Q21.934376 201.67813 21.934376 201.52188L21.934376 199.19376Q21.934376 199.05313 21.996876 198.99063Q22.075 198.9125 22.2 198.9125L24.715626 198.9125Q24.746876 198.9125 24.778126 198.94376Q24.809376 198.95938 24.825 199.00626Q24.85625 199.0375 24.871876 199.1Q24.8875 199.1625 24.8875 199.24063Q24.8875 199.39688 24.840626 199.49063Q24.79375 199.56876 24.715626 199.56876L22.590626 199.56876L22.590626 201.1625Q22.746876 201.14688 22.903126 201.14688Q23.075 201.13126 23.278126 201.13126Q23.7625 201.13126 24.121876 201.25626Q24.496876 201.36563 24.73125 201.58438Q24.98125 201.80313 25.10625 202.1Q25.23125 202.39688 25.23125 202.77188ZM30.45 201.74063Q30.45 202.39688 30.340626 202.94376Q30.246876 203.475 29.996876 203.86563Q29.7625 204.25626 29.371876 204.475Q28.996876 204.67813 28.41875 204.67813Q27.8875 204.67813 27.5125 204.49063Q27.153126 204.30313 26.91875 203.92813Q26.7 203.55313 26.60625 203.02188Q26.5125 202.475 26.5125 201.77188Q26.5125 201.11563 26.621876 200.58438Q26.73125 200.0375 26.965626 199.64688Q27.2 199.25626 27.590626 199.05313Q27.98125 198.83438 28.54375 198.83438Q29.075 198.83438 29.434376 199.02188Q29.809376 199.20938 30.028126 199.58438Q30.2625 199.95938 30.35625 200.50626Q30.45 201.0375 30.45 201.74063ZM29.66875 201.80313Q29.66875 201.36563 29.6375 201.0375Q29.621876 200.69376 29.559376 200.44376Q29.496876 200.17813 29.403126 199.99063Q29.309376 199.80313 29.16875 199.67813Q29.04375 199.55313 28.871876 199.50626Q28.7 199.44376 28.496876 199.44376Q28.121876 199.44376 27.8875 199.63126Q27.653126 199.80313 27.5125 200.11563Q27.3875 200.4125 27.340626 200.83438Q27.29375 201.24063 27.29375 201.70938Q27.29375 202.35 27.35625 202.80313Q27.41875 203.24063 27.559376 203.52188Q27.7 203.80313 27.91875 203.94376Q28.153126 204.06876 28.465626 204.06876Q28.715626 204.06876 28.903126 203.99063Q29.090626 203.9125 29.215626 203.77188Q29.35625 203.61563 29.434376 203.4125Q29.528126 203.19376 29.575 202.94376Q29.6375 202.69376 29.653126 202.4125Q29.66875 202.11563 29.66875 201.80313Z" fill-rule="nonzero"/><path fill="#595959" d="M20.278126 113.60313Q20.278126 113.68125 20.2625 113.74375Q20.246876 113.80625 20.215626 113.8375Q20.2 113.86875 20.16875 113.88438Q20.153126 113.9 20.121876 113.9L17.1375 113.9Q17.121876 113.9 17.090626 113.88438Q17.059376 113.86875 17.028126 113.8375Q17.0125 113.80625 16.996876 113.74375Q16.98125 113.68125 16.98125 113.60313Q16.98125 113.525 16.996876 113.4625Q17.0125 113.4 17.028126 113.36875Q17.059376 113.3375 17.075 113.32188Q17.10625 113.29063 17.1375 113.29063L18.325 113.29063L18.325 108.9625L17.23125 109.61875Q17.153126 109.66563 17.090626 109.68125Q17.04375 109.68125 17.0125 109.66563Q16.98125 109.63438 16.965626 109.57188Q16.965626 109.49375 16.965626 109.4Q16.965626 109.32188 16.965626 109.275Q16.98125 109.2125 16.98125 109.18125Q16.996876 109.15 17.028126 109.11875Q17.059376 109.0875 17.090626 109.07188L18.403126 108.22813Q18.41875 108.2125 18.434376 108.2125Q18.465626 108.19688 18.496876 108.19688Q18.54375 108.18125 18.590626 108.18125Q18.653126 108.18125 18.73125 108.18125Q18.840626 108.18125 18.903126 108.19688Q18.98125 108.19688 19.0125 108.2125Q19.059376 108.22813 19.075 108.25938Q19.090626 108.275 19.090626 108.29063L19.090626 113.29063L20.121876 113.29063Q20.153126 113.29063 20.184376 113.32188Q20.215626 113.3375 20.23125 113.36875Q20.246876 113.4 20.2625 113.4625Q20.278126 113.525 20.278126 113.60313ZM25.45 111.04063Q25.45 111.69688 25.340626 112.24375Q25.246876 112.775 24.996876 113.16563Q24.7625 113.55625 24.371876 113.775Q23.996876 113.97813 23.41875 113.97813Q22.8875 113.97813 22.5125 113.79063Q22.153126 113.60313 21.91875 113.22813Q21.7 112.85313 21.60625 112.32188Q21.5125 111.775 21.5125 111.07188Q21.5125 110.41563 21.621876 109.88438Q21.73125 109.3375 21.965626 108.94688Q22.2 108.55625 22.590626 108.35313Q22.98125 108.13438 23.54375 108.13438Q24.075 108.13438 24.434376 108.32188Q24.809376 108.50938 25.028126 108.88438Q25.2625 109.25938 25.35625 109.80625Q25.45 110.3375 25.45 111.04063ZM24.66875 111.10313Q24.66875 110.66563 24.6375 110.3375Q24.621876 109.99375 24.559376 109.74375Q24.496876 109.47813 24.403126 109.29063Q24.309376 109.10313 24.16875 108.97813Q24.04375 108.85313 23.871876 108.80625Q23.7 108.74375 23.496876 108.74375Q23.121876 108.74375 22.8875 108.93125Q22.653126 109.10313 22.5125 109.41563Q22.3875 109.7125 22.340626 110.13438Q22.29375 110.54063 22.29375 111.00938Q22.29375 111.65 22.35625 112.10313Q22.41875 112.54063 22.559376 112.82188Q22.7 113.10313 22.91875 113.24375Q23.153126 113.36875 23.465626 113.36875Q23.715626 113.36875 23.903126 113.29063Q24.090626 113.2125 24.215626 113.07188Q24.35625 112.91563 24.434376 112.7125Q24.528126 112.49375 24.575 112.24375Q24.6375 111.99375 24.653126 111.7125Q24.66875 111.41563 24.66875 111.10313ZM30.45 111.04063Q30.45 111.69688 30.340626 112.24375Q30.246876 112.775 29.996876 113.16563Q29.7625 113.55625 29.371876 113.775Q28.996876 113.97813 28.41875 113.97813Q27.8875 113.97813 27.5125 113.79063Q27.153126 113.60313 26.91875 113.22813Q26.7 112.85313 26.60625 112.32188Q26.5125 111.775 26.5125 111.07188Q26.5125 110.41563 26.621876 109.88438Q26.73125 109.3375 26.965626 108.94688Q27.2 108.55625 27.590626 108.35313Q27.98125 108.13438 28.54375 108.13438Q29.075 108.13438 29.434376 108.32188Q29.809376 108.50938 30.028126 108.88438Q30.2625 109.25938 30.35625 109.80625Q30.45 110.3375 30.45 111.04063ZM29.66875 111.10313Q29.66875 110.66563 29.6375 110.3375Q29.621876 109.99375 29.559376 109.74375Q29.496876 109.47813 29.403126 109.29063Q29.309376 109.10313 29.16875 108.97813Q29.04375 108.85313 28.871876 108.80625Q28.7 108.74375 28.496876 108.74375Q28.121876 108.74375 27.8875 108.93125Q27.653126 109.10313 27.5125 109.41563Q27.3875 109.7125 27.340626 110.13438Q27.29375 110.54063 27.29375 111.00938Q27.29375 111.65 27.35625 112.10313Q27.41875 112.54063 27.559376 112.82188Q27.7 113.10313 27.91875 113.24375Q28.153126 113.36875 28.465626 113.36875Q28.715626 113.36875 28.903126 113.29063Q29.090626 113.2125 29.215626 113.07188Q29.35625 112.91563 29.434376 112.7125Q29.528126 112.49375 29.575 112.24375Q29.6375 111.99375 29.653126 111.7125Q29.66875 111.41563 29.66875 111.10313Z" fill-rule="nonzero"/><path fill="#595959" d="M20.278126 22.903126Q20.278126 22.98125 20.2625 23.04375Q20.246876 23.10625 20.215626 23.1375Q20.2 23.16875 20.16875 23.184376Q20.153126 23.2 20.121876 23.2L17.1375 23.2Q17.121876 23.2 17.090626 23.184376Q17.059376 23.16875 17.028126 23.1375Q17.0125 23.10625 16.996876 23.04375Q16.98125 22.98125 16.98125 22.903126Q16.98125 22.825 16.996876 22.7625Q17.0125 22.7 17.028126 22.66875Q17.059376 22.6375 17.075 22.621876Q17.10625 22.590626 17.1375 22.590626L18.325 22.590626L18.325 18.2625L17.23125 18.91875Q17.153126 18.965626 17.090626 18.98125Q17.04375 18.98125 17.0125 18.965626Q16.98125 18.934376 16.965626 18.871876Q16.965626 18.79375 16.965626 18.7Q16.965626 18.621876 16.965626 18.575Q16.98125 18.5125 16.98125 18.48125Q16.996876 18.45 17.028126 18.41875Q17.059376 18.3875 17.090626 18.371876L18.403126 17.528126Q18.41875 17.5125 18.434376 17.5125Q18.465626 17.496876 18.496876 17.496876Q18.54375 17.48125 18.590626 17.48125Q18.653126 17.48125 18.73125 17.48125Q18.840626 17.48125 18.903126 17.496876Q18.98125 17.496876 19.0125 17.5125Q19.059376 17.528126 19.075 17.559376Q19.090626 17.575 19.090626 17.590626L19.090626 22.590626L20.121876 22.590626Q20.153126 22.590626 20.184376 22.621876Q20.215626 22.6375 20.23125 22.66875Q20.246876 22.7 20.2625 22.7625Q20.278126 22.825 20.278126 22.903126ZM25.23125 21.371876Q25.23125 21.825 25.075 22.184376Q24.934376 22.54375 24.653126 22.79375Q24.371876 23.028126 23.98125 23.153126Q23.590626 23.278126 23.10625 23.278126Q22.840626 23.278126 22.60625 23.246876Q22.371876 23.215626 22.184376 23.16875Q21.996876 23.10625 21.871876 23.059376Q21.7625 22.996876 21.73125 22.965626Q21.7 22.934376 21.684376 22.903126Q21.66875 22.871876 21.653126 22.840626Q21.653126 22.809376 21.6375 22.746876Q21.6375 22.684376 21.6375 22.60625Q21.6375 22.54375 21.6375 22.48125Q21.653126 22.41875 21.66875 22.3875Q21.7 22.340626 21.715626 22.325Q21.746876 22.309376 21.778126 22.309376Q21.809376 22.309376 21.903126 22.371876Q21.996876 22.41875 22.153126 22.48125Q22.309376 22.54375 22.54375 22.60625Q22.778126 22.653126 23.090626 22.653126Q23.3875 22.653126 23.621876 22.590626Q23.871876 22.5125 24.04375 22.371876Q24.23125 22.215626 24.325 21.996876Q24.434376 21.7625 24.434376 21.434376Q24.434376 21.16875 24.340626 20.965626Q24.2625 20.746876 24.075 20.621876Q23.903126 20.48125 23.621876 20.41875Q23.35625 20.340626 22.98125 20.340626Q22.715626 20.340626 22.5125 20.371876Q22.325 20.3875 22.16875 20.3875Q22.04375 20.3875 21.98125 20.340626Q21.934376 20.278126 21.934376 20.121876L21.934376 17.79375Q21.934376 17.653126 21.996876 17.590626Q22.075 17.5125 22.2 17.5125L24.715626 17.5125Q24.746876 17.5125 24.778126 17.54375Q24.809376 17.559376 24.825 17.60625Q24.85625 17.6375 24.871876 17.7Q24.8875 17.7625 24.8875 17.840626Q24.8875 17.996876 24.840626 18.090626Q24.79375 18.16875 24.715626 18.16875L22.590626 18.16875L22.590626 19.7625Q22.746876 19.746876 22.903126 19.746876Q23.075 19.73125 23.278126 19.73125Q23.7625 19.73125 24.121876 19.85625Q24.496876 19.965626 24.73125 20.184376Q24.98125 20.403126 25.10625 20.7Q25.23125 20.996876 25.23125 21.371876ZM30.45 20.340626Q30.45 20.996876 30.340626 21.54375Q30.246876 22.075 29.996876 22.465626Q29.7625 22.85625 29.371876 23.075Q28.996876 23.278126 28.41875 23.278126Q27.8875 23.278126 27.5125 23.090626Q27.153126 22.903126 26.91875 22.528126Q26.7 22.153126 26.60625 21.621876Q26.5125 21.075 26.5125 20.371876Q26.5125 19.715626 26.621876 19.184376Q26.73125 18.6375 26.965626 18.246876Q27.2 17.85625 27.590626 17.653126Q27.98125 17.434376 28.54375 17.434376Q29.075 17.434376 29.434376 17.621876Q29.809376 17.809376 30.028126 18.184376Q30.2625 18.559376 30.35625 19.10625Q30.45 19.6375 30.45 20.340626ZM29.66875 20.403126Q29.66875 19.965626 29.6375 19.6375Q29.621876 19.29375 29.559376 19.04375Q29.496876 18.778126 29.403126 18.590626Q29.309376 18.403126 29.16875 18.278126Q29.04375 18.153126 28.871876 18.10625Q28.7 18.04375 28.496876 18.04375Q28.121876 18.04375 27.8875 18.23125Q27.653126 18.403126 27.5125 18.715626Q27.3875 19.0125 27.340626 19.434376Q27.29375 19.840626 27.29375 20.309376Q27.29375 20.95 27.35625 21.403126Q27.41875 21.840626 27.559376 22.121876Q27.7 22.403126 27.91875 22.54375Q28.153126 22.66875 28.465626 22.66875Q28.715626 22.66875 28.903126 22.590626Q29.090626 22.5125 29.215626 22.371876Q29.35625 22.215626 29.434376 22.0125Q29.528126 21.79375 29.575 21.54375Q29.6375 21.29375 29.653126 21.0125Q29.66875 20.715626 29.66875 20.403126Z" fill-rule="nonzero"/><path fill="#595959" d="M41.94172 301.9406Q41.94172 302.59686 41.832344 303.14374Q41.738594 303.675 41.488594 304.0656Q41.25422 304.45624 40.863594 304.675Q40.488594 304.8781 39.91047 304.8781Q39.37922 304.8781 39.00422 304.6906Q38.644844 304.5031 38.41047 304.1281Q38.19172 303.7531 38.09797 303.22186Q38.00422 302.675 38.00422 301.97186Q38.00422 301.3156 38.113594 300.78436Q38.22297 300.2375 38.457344 299.84686Q38.69172 299.45624 39.082344 299.2531Q39.47297 299.03436 40.03547 299.03436Q40.56672 299.03436 40.926094 299.22186Q41.301094 299.40936 41.519844 299.78436Q41.75422 300.15936 41.84797 300.70624Q41.94172 301.2375 41.94172 301.9406ZM41.16047 302.0031Q41.16047 301.5656 41.12922 301.2375Q41.113594 300.89374 41.051094 300.64374Q40.988594 300.3781 40.894844 300.1906Q40.801094 300.0031 40.66047 299.8781Q40.53547 299.7531 40.363594 299.70624Q40.19172 299.64374 39.988594 299.64374Q39.613594 299.64374 39.37922 299.83124Q39.144844 300.0031 39.00422 300.3156Q38.87922 300.6125 38.832344 301.03436Q38.78547 301.4406 38.78547 301.90936Q38.78547 302.55 38.84797 303.0031Q38.91047 303.4406 39.051094 303.72186Q39.19172 304.0031 39.41047 304.14374Q39.644844 304.26874 39.957344 304.26874Q40.207344 304.26874 40.394844 304.1906Q40.582344 304.1125 40.707344 303.97186Q40.84797 303.8156 40.926094 303.6125Q41.019844 303.39374 41.06672 303.14374Q41.12922 302.89374 41.144844 302.6125Q41.16047 302.3156 41.16047 302.0031Z" fill-rule="nonzero"/><path fill="#595959" d="M123.85582 304.47186Q123.85582 304.55 123.840195 304.6125Q123.82457 304.675 123.808945 304.72186Q123.79332 304.7531 123.76207 304.78436Q123.73082 304.8 123.683945 304.8L120.54332 304.8Q120.48082 304.8 120.433945 304.78436Q120.38707 304.76874 120.35582 304.7375Q120.32457 304.70624 120.308945 304.64374Q120.29332 304.5656 120.29332 304.47186Q120.29332 304.3781 120.29332 304.3156Q120.308945 304.2531 120.32457 304.20624Q120.35582 304.14374 120.38707 304.09686Q120.41832 304.05 120.465195 303.9875L121.57457 302.8156Q121.94957 302.425 122.183945 302.09686Q122.41832 301.76874 122.54332 301.51874Q122.66832 301.2531 122.69957 301.03436Q122.746445 300.8156 122.746445 300.6281Q122.746445 300.4406 122.683945 300.26874Q122.621445 300.09686 122.496445 299.97186Q122.38707 299.84686 122.215195 299.76874Q122.04332 299.6906 121.808945 299.6906Q121.54332 299.6906 121.32457 299.76874Q121.121445 299.84686 120.94957 299.9406Q120.79332 300.01874 120.683945 300.09686Q120.57457 300.175 120.527695 300.175Q120.496445 300.175 120.465195 300.15936Q120.44957 300.14374 120.433945 300.1125Q120.41832 300.0656 120.402695 300.0031Q120.402695 299.925 120.402695 299.83124Q120.402695 299.76874 120.402695 299.72186Q120.402695 299.675 120.41832 299.64374Q120.433945 299.59686 120.44957 299.5656Q120.465195 299.53436 120.51207 299.4875Q120.57457 299.4406 120.69957 299.3625Q120.82457 299.28436 121.01207 299.20624Q121.215195 299.1281 121.44957 299.08124Q121.69957 299.03436 121.94957 299.03436Q122.371445 299.03436 122.66832 299.15936Q122.98082 299.26874 123.183945 299.47186Q123.38707 299.65936 123.48082 299.9406Q123.590195 300.20624 123.590195 300.5031Q123.590195 300.78436 123.54332 301.05Q123.496445 301.3156 123.340195 301.6281Q123.183945 301.9406 122.88707 302.33124Q122.590195 302.72186 122.10582 303.22186L121.215195 304.15936L123.683945 304.15936Q123.715195 304.15936 123.746445 304.175Q123.777695 304.1906 123.79332 304.2375Q123.82457 304.28436 123.840195 304.34686Q123.85582 304.39374 123.85582 304.47186ZM128.82457 302.97186Q128.82457 303.425 128.66832 303.78436Q128.5277 304.14374 128.24644 304.39374Q127.965195 304.6281 127.57457 304.7531Q127.183945 304.8781 126.69957 304.8781Q126.433945 304.8781 126.19957 304.84686Q125.965195 304.8156 125.777695 304.76874Q125.590195 304.70624 125.465195 304.65936Q125.35582 304.59686 125.32457 304.5656Q125.29332 304.53436 125.277695 304.5031Q125.26207 304.47186 125.246445 304.4406Q125.246445 304.40936 125.23082 304.34686Q125.23082 304.28436 125.23082 304.20624Q125.23082 304.14374 125.23082 304.08124Q125.246445 304.01874 125.26207 303.9875Q125.29332 303.9406 125.308945 303.925Q125.340195 303.90936 125.371445 303.90936Q125.402695 303.90936 125.496445 303.97186Q125.590195 304.01874 125.746445 304.08124Q125.902695 304.14374 126.13707 304.20624Q126.371445 304.2531 126.683945 304.2531Q126.98082 304.2531 127.215195 304.1906Q127.465195 304.1125 127.63707 303.97186Q127.82457 303.8156 127.91832 303.59686Q128.0277 303.3625 128.0277 303.03436Q128.0277 302.76874 127.933945 302.5656Q127.85582 302.34686 127.66832 302.22186Q127.496445 302.08124 127.215195 302.01874Q126.94957 301.9406 126.57457 301.9406Q126.308945 301.9406 126.10582 301.97186Q125.91832 301.9875 125.76207 301.9875Q125.63707 301.9875 125.57457 301.9406Q125.527695 301.8781 125.527695 301.72186L125.527695 299.39374Q125.527695 299.2531 125.590195 299.1906Q125.66832 299.1125 125.79332 299.1125L128.30894 299.1125Q128.3402 299.1125 128.37144 299.14374Q128.4027 299.15936 128.41832 299.20624Q128.44957 299.2375 128.4652 299.3Q128.48082 299.3625 128.48082 299.4406Q128.48082 299.59686 128.43394 299.6906Q128.38707 299.76874 128.30894 299.76874L126.183945 299.76874L126.183945 301.3625Q126.340195 301.34686 126.496445 301.34686Q126.66832 301.33124 126.871445 301.33124Q127.35582 301.33124 127.715195 301.45624Q128.0902 301.5656 128.32457 301.78436Q128.57457 302.0031 128.69957 302.3Q128.82457 302.59686 128.82457 302.97186ZM134.04332 301.9406Q134.04332 302.59686 133.93394 303.14374Q133.8402 303.675 133.5902 304.0656Q133.35582 304.45624 132.9652 304.675Q132.5902 304.8781 132.01207 304.8781Q131.48082 304.8781 131.10582 304.6906Q130.74644 304.5031 130.51207 304.1281Q130.29332 303.7531 130.19957 303.22186Q130.10582 302.675 130.10582 301.97186Q130.10582 301.3156 130.2152 300.78436Q130.32457 300.2375 130.55894 299.84686Q130.79332 299.45624 131.18394 299.2531Q131.57457 299.03436 132.13707 299.03436Q132.66832 299.03436 133.0277 299.22186Q133.4027 299.40936 133.62144 299.78436Q133.85582 300.15936 133.94957 300.70624Q134.04332 301.2375 134.04332 301.9406ZM133.26207 302.0031Q133.26207 301.5656 133.23082 301.2375Q133.2152 300.89374 133.1527 300.64374Q133.0902 300.3781 132.99644 300.1906Q132.9027 300.0031 132.76207 299.8781Q132.63707 299.7531 132.4652 299.70624Q132.29332 299.64374 132.0902 299.64374Q131.7152 299.64374 131.48082 299.83124Q131.24644 300.0031 131.10582 300.3156Q130.98082 300.6125 130.93394 301.03436Q130.88707 301.4406 130.88707 301.90936Q130.88707 302.55 130.94957 303.0031Q131.01207 303.4406 131.1527 303.72186Q131.29332 304.0031 131.51207 304.14374Q131.74644 304.26874 132.05894 304.26874Q132.30894 304.26874 132.49644 304.1906Q132.68394 304.1125 132.80894 303.97186Q132.94957 303.8156 133.0277 303.6125Q133.12144 303.39374 133.16832 303.14374Q133.23082 302.89374 133.24644 302.6125Q133.26207 302.3156 133.26207 302.0031ZM139.04332 301.9406Q139.04332 302.59686 138.93394 303.14374Q138.8402 303.675 138.5902 304.0656Q138.35582 304.45624 137.9652 304.675Q137.5902 304.8781 137.01207 304.8781Q136.48082 304.8781 136.10582 304.6906Q135.74644 304.5031 135.51207 304.1281Q135.29332 303.7531 135.19957 303.22186Q135.10582 302.675 135.10582 301.97186Q135.10582 301.3156 135.2152 300.78436Q135.32457 300.2375 135.55894 299.84686Q135.79332 299.45624 136.18394 299.2531Q136.57457 299.03436 137.13707 299.03436Q137.66832 299.03436 138.0277 299.22186Q138.4027 299.40936 138.62144 299.78436Q138.85582 300.15936 138.94957 300.70624Q139.04332 301.2375 139.04332 301.9406ZM138.26207 302.0031Q138.26207 301.5656 138.23082 301.2375Q138.2152 300.89374 138.1527 300.64374Q138.0902 300.3781 137.99644 300.1906Q137.9027 300.0031 137.76207 299.8781Q137.63707 299.7531 137.4652 299.70624Q137.29332 299.64374 137.0902 299.64374Q136.7152 299.64374 136.48082 299.83124Q136.24644 300.0031 136.10582 300.3156Q135.98082 300.6125 135.93394 301.03436Q135.88707 301.4406 135.88707 301.90936Q135.88707 302.55 135.94957 303.0031Q136.01207 303.4406 136.1527 303.72186Q136.29332 304.0031 136.51207 304.14374Q136.74644 304.26874 137.05894 304.26874Q137.30894 304.26874 137.49644 304.1906Q137.68394 304.1125 137.80894 303.97186Q137.94957 303.8156 138.0277 303.6125Q138.12144 303.39374 138.16832 303.14374Q138.23082 302.89374 138.24644 302.6125Q138.26207 302.3156 138.26207 302.0031ZM144.04332 301.9406Q144.04332 302.59686 143.93394 303.14374Q143.8402 303.675 143.5902 304.0656Q143.35582 304.45624 142.9652 304.675Q142.5902 304.8781 142.01207 304.8781Q141.48082 304.8781 141.10582 304.6906Q140.74644 304.5031 140.51207 304.1281Q140.29332 303.7531 140.19957 303.22186Q140.10582 302.675 140.10582 301.97186Q140.10582 301.3156 140.2152 300.78436Q140.32457 300.2375 140.55894 299.84686Q140.79332 299.45624 141.18394 299.2531Q141.57457 299.03436 142.13707 299.03436Q142.66832 299.03436 143.0277 299.22186Q143.4027 299.40936 143.62144 299.78436Q143.85582 300.15936 143.94957 300.70624Q144.04332 301.2375 144.04332 301.9406ZM143.26207 302.0031Q143.26207 301.5656 143.23082 301.2375Q143.2152 300.89374 143.1527 300.64374Q143.0902 300.3781 142.99644 300.1906Q142.9027 300.0031 142.76207 299.8781Q142.63707 299.7531 142.4652 299.70624Q142.29332 299.64374 142.0902 299.64374Q141.7152 299.64374 141.48082 299.83124Q141.24644 300.0031 141.10582 300.3156Q140.98082 300.6125 140.93394 301.03436Q140.88707 301.4406 140.88707 301.90936Q140.88707 302.55 140.94957 303.0031Q141.01207 303.4406 141.1527 303.72186Q141.29332 304.0031 141.51207 304.14374Q141.74644 304.26874 142.05894 304.26874Q142.30894 304.26874 142.49644 304.1906Q142.68394 304.1125 142.80894 303.97186Q142.94957 303.8156 143.0277 303.6125Q143.12144 303.39374 143.16832 303.14374Q143.23082 302.89374 143.24644 302.6125Q143.26207 302.3156 143.26207 302.0031ZM149.04332 301.9406Q149.04332 302.59686 148.93394 303.14374Q148.8402 303.675 148.5902 304.0656Q148.35582 304.45624 147.9652 304.675Q147.5902 304.8781 147.01207 304.8781Q146.48082 304.8781 146.10582 304.6906Q145.74644 304.5031 145.51207 304.1281Q145.29332 303.7531 145.19957 303.22186Q145.10582 302.675 145.10582 301.97186Q145.10582 301.3156 145.2152 300.78436Q145.32457 300.2375 145.55894 299.84686Q145.79332 299.45624 146.18394 299.2531Q146.57457 299.03436 147.13707 299.03436Q147.66832 299.03436 148.0277 299.22186Q148.4027 299.40936 148.62144 299.78436Q148.85582 300.15936 148.94957 300.70624Q149.04332 301.2375 149.04332 301.9406ZM148.26207 302.0031Q148.26207 301.5656 148.23082 301.2375Q148.2152 300.89374 148.1527 300.64374Q148.0902 300.3781 147.99644 300.1906Q147.9027 300.0031 147.76207 299.8781Q147.63707 299.7531 147.4652 299.70624Q147.29332 299.64374 147.0902 299.64374Q146.7152 299.64374 146.48082 299.83124Q146.24644 300.0031 146.10582 300.3156Q145.98082 300.6125 145.93394 301.03436Q145.88707 301.4406 145.88707 301.90936Q145.88707 302.55 145.94957 303.0031Q146.01207 303.4406 146.1527 303.72186Q146.29332 304.0031 146.51207 304.14374Q146.74644 304.26874 147.05894 304.26874Q147.30894 304.26874 147.49644 304.1906Q147.68394 304.1125 147.80894 303.97186Q147.94957 303.8156 148.0277 303.6125Q148.12144 303.39374 148.16832 303.14374Q148.23082 302.89374 148.24644 302.6125Q148.26207 302.3156 148.26207 302.0031ZM154.04332 301.9406Q154.04332 302.59686 153.93394 303.14374Q153.8402 303.675 153.5902 304.0656Q153.35582 304.45624 152.9652 304.675Q152.5902 304.8781 152.01207 304.8781Q151.48082 304.8781 151.10582 304.6906Q150.74644 304.5031 150.51207 304.1281Q150.29332 303.7531 150.19957 303.22186Q150.10582 302.675 150.10582 301.97186Q150.10582 301.3156 150.2152 300.78436Q150.32457 300.2375 150.55894 299.84686Q150.79332 299.45624 151.18394 299.2531Q151.57457 299.03436 152.13707 299.03436Q152.66832 299.03436 153.0277 299.22186Q153.4027 299.40936 153.62144 299.78436Q153.85582 300.15936 153.94957 300.70624Q154.04332 301.2375 154.04332 301.9406ZM153.26207 302.0031Q153.26207 301.5656 153.23082 301.2375Q153.2152 300.89374 153.1527 300.64374Q153.0902 300.3781 152.99644 300.1906Q152.9027 300.0031 152.76207 299.8781Q152.63707 299.7531 152.4652 299.70624Q152.29332 299.64374 152.0902 299.64374Q151.7152 299.64374 151.48082 299.83124Q151.24644 300.0031 151.10582 300.3156Q150.98082 300.6125 150.93394 301.03436Q150.88707 301.4406 150.88707 301.90936Q150.88707 302.55 150.94957 303.0031Q151.01207 303.4406 151.1527 303.72186Q151.29332 304.0031 151.51207 304.14374Q151.74644 304.26874 152.05894 304.26874Q152.30894 304.26874 152.49644 304.1906Q152.68394 304.1125 152.80894 303.97186Q152.94957 303.8156 153.0277 303.6125Q153.12144 303.39374 153.16832 303.14374Q153.23082 302.89374 153.24644 302.6125Q153.26207 302.3156 153.26207 302.0031Z" fill-rule="nonzero"/><path fill="#595959" d="M220.92616 302.97186Q220.92616 303.425 220.76991 303.78436Q220.62929 304.14374 220.34804 304.39374Q220.06679 304.6281 219.67616 304.7531Q219.28554 304.8781 218.80116 304.8781Q218.53554 304.8781 218.30116 304.84686Q218.06679 304.8156 217.87929 304.76874Q217.69179 304.70624 217.56679 304.65936Q217.45741 304.59686 217.42616 304.5656Q217.39491 304.53436 217.37929 304.5031Q217.36366 304.47186 217.34804 304.4406Q217.34804 304.40936 217.33241 304.34686Q217.33241 304.28436 217.33241 304.20624Q217.33241 304.14374 217.33241 304.08124Q217.34804 304.01874 217.36366 303.9875Q217.39491 303.9406 217.41054 303.925Q217.44179 303.90936 217.47304 303.90936Q217.50429 303.90936 217.59804 303.97186Q217.69179 304.01874 217.84804 304.08124Q218.00429 304.14374 218.23866 304.20624Q218.47304 304.2531 218.78554 304.2531Q219.08241 304.2531 219.31679 304.1906Q219.56679 304.1125 219.73866 303.97186Q219.92616 303.8156 220.01991 303.59686Q220.12929 303.3625 220.12929 303.03436Q220.12929 302.76874 220.03554 302.5656Q219.95741 302.34686 219.76991 302.22186Q219.59804 302.08124 219.31679 302.01874Q219.05116 301.9406 218.67616 301.9406Q218.41054 301.9406 218.20741 301.97186Q218.01991 301.9875 217.86366 301.9875Q217.73866 301.9875 217.67616 301.9406Q217.62929 301.8781 217.62929 301.72186L217.62929 299.39374Q217.62929 299.2531 217.69179 299.1906Q217.76991 299.1125 217.89491 299.1125L220.41054 299.1125Q220.44179 299.1125 220.47304 299.14374Q220.50429 299.15936 220.51991 299.20624Q220.55116 299.2375 220.56679 299.3Q220.58241 299.3625 220.58241 299.4406Q220.58241 299.59686 220.53554 299.6906Q220.48866 299.76874 220.41054 299.76874L218.28554 299.76874L218.28554 301.3625Q218.44179 301.34686 218.59804 301.34686Q218.76991 301.33124 218.97304 301.33124Q219.45741 301.33124 219.81679 301.45624Q220.19179 301.5656 220.42616 301.78436Q220.67616 302.0031 220.80116 302.3Q220.92616 302.59686 220.92616 302.97186ZM226.14491 301.9406Q226.14491 302.59686 226.03554 303.14374Q225.94179 303.675 225.69179 304.0656Q225.45741 304.45624 225.06679 304.675Q224.69179 304.8781 224.11366 304.8781Q223.58241 304.8781 223.20741 304.6906Q222.84804 304.5031 222.61366 304.1281Q222.39491 303.7531 222.30116 303.22186Q222.20741 302.675 222.20741 301.97186Q222.20741 301.3156 222.31679 300.78436Q222.42616 300.2375 222.66054 299.84686Q222.89491 299.45624 223.28554 299.2531Q223.67616 299.03436 224.23866 299.03436Q224.76991 299.03436 225.12929 299.22186Q225.50429 299.40936 225.72304 299.78436Q225.95741 300.15936 226.05116 300.70624Q226.14491 301.2375 226.14491 301.9406ZM225.36366 302.0031Q225.36366 301.5656 225.33241 301.2375Q225.31679 300.89374 225.25429 300.64374Q225.19179 300.3781 225.09804 300.1906Q225.00429 300.0031 224.86366 299.8781Q224.73866 299.7531 224.56679 299.70624Q224.39491 299.64374 224.19179 299.64374Q223.81679 299.64374 223.58241 299.83124Q223.34804 300.0031 223.20741 300.3156Q223.08241 300.6125 223.03554 301.03436Q222.98866 301.4406 222.98866 301.90936Q222.98866 302.55 223.05116 303.0031Q223.11366 303.4406 223.25429 303.72186Q223.39491 304.0031 223.61366 304.14374Q223.84804 304.26874 224.16054 304.26874Q224.41054 304.26874 224.59804 304.1906Q224.78554 304.1125 224.91054 303.97186Q225.05116 303.8156 225.12929 303.6125Q225.22304 303.39374 225.26991 303.14374Q225.33241 302.89374 225.34804 302.6125Q225.36366 302.3156 225.36366 302.0031ZM231.14491 301.9406Q231.14491 302.59686 231.03554 303.14374Q230.94179 303.675 230.69179 304.0656Q230.45741 304.45624 230.06679 304.675Q229.69179 304.8781 229.11366 304.8781Q228.58241 304.8781 228.20741 304.6906Q227.84804 304.5031 227.61366 304.1281Q227.39491 303.7531 227.30116 303.22186Q227.20741 302.675 227.20741 301.97186Q227.20741 301.3156 227.31679 300.78436Q227.42616 300.2375 227.66054 299.84686Q227.89491 299.45624 228.28554 299.2531Q228.67616 299.03436 229.23866 299.03436Q229.76991 299.03436 230.12929 299.22186Q230.50429 299.40936 230.72304 299.78436Q230.95741 300.15936 231.05116 300.70624Q231.14491 301.2375 231.14491 301.9406ZM230.36366 302.0031Q230.36366 301.5656 230.33241 301.2375Q230.31679 300.89374 230.25429 300.64374Q230.19179 300.3781 230.09804 300.1906Q230.00429 300.0031 229.86366 299.8781Q229.73866 299.7531 229.56679 299.70624Q229.39491 299.64374 229.19179 299.64374Q228.81679 299.64374 228.58241 299.83124Q228.34804 300.0031 228.20741 300.3156Q228.08241 300.6125 228.03554 301.03436Q227.98866 301.4406 227.98866 301.90936Q227.98866 302.55 228.05116 303.0031Q228.11366 303.4406 228.25429 303.72186Q228.39491 304.0031 228.61366 304.14374Q228.84804 304.26874 229.16054 304.26874Q229.41054 304.26874 229.59804 304.1906Q229.78554 304.1125 229.91054 303.97186Q230.05116 303.8156 230.12929 303.6125Q230.22304 303.39374 230.26991 303.14374Q230.33241 302.89374 230.34804 302.6125Q230.36366 302.3156 230.36366 302.0031ZM236.14491 301.9406Q236.14491 302.59686 236.03554 303.14374Q235.94179 303.675 235.69179 304.0656Q235.45741 304.45624 235.06679 304.675Q234.69179 304.8781 234.11366 304.8781Q233.58241 304.8781 233.20741 304.6906Q232.84804 304.5031 232.61366 304.1281Q232.39491 303.7531 232.30116 303.22186Q232.20741 302.675 232.20741 301.97186Q232.20741 301.3156 232.31679 300.78436Q232.42616 300.2375 232.66054 299.84686Q232.89491 299.45624 233.28554 299.2531Q233.67616 299.03436 234.23866 299.03436Q234.76991 299.03436 235.12929 299.22186Q235.50429 299.40936 235.72304 299.78436Q235.95741 300.15936 236.05116 300.70624Q236.14491 301.2375 236.14491 301.9406ZM235.36366 302.0031Q235.36366 301.5656 235.33241 301.2375Q235.31679 300.89374 235.25429 300.64374Q235.19179 300.3781 235.09804 300.1906Q235.00429 300.0031 234.86366 299.8781Q234.73866 299.7531 234.56679 299.70624Q234.39491 299.64374 234.19179 299.64374Q233.81679 299.64374 233.58241 299.83124Q233.34804 300.0031 233.20741 300.3156Q233.08241 300.6125 233.03554 301.03436Q232.98866 301.4406 232.98866 301.90936Q232.98866 302.55 233.05116 303.0031Q233.11366 303.4406 233.25429 303.72186Q233.39491 304.0031 233.61366 304.14374Q233.84804 304.26874 234.16054 304.26874Q234.41054 304.26874 234.59804 304.1906Q234.78554 304.1125 234.91054 303.97186Q235.05116 303.8156 235.12929 303.6125Q235.22304 303.39374 235.26991 303.14374Q235.33241 302.89374 235.34804 302.6125Q235.36366 302.3156 235.36366 302.0031ZM241.14491 301.9406Q241.14491 302.59686 241.03554 303.14374Q240.94179 303.675 240.69179 304.0656Q240.45741 304.45624 240.06679 304.675Q239.69179 304.8781 239.11366 304.8781Q238.58241 304.8781 238.20741 304.6906Q237.84804 304.5031 237.61366 304.1281Q237.39491 303.7531 237.30116 303.22186Q237.20741 302.675 237.20741 301.97186Q237.20741 301.3156 237.31679 300.78436Q237.42616 300.2375 237.66054 299.84686Q237.89491 299.45624 238.28554 299.2531Q238.67616 299.03436 239.23866 299.03436Q239.76991 299.03436 240.12929 299.22186Q240.50429 299.40936 240.72304 299.78436Q240.95741 300.15936 241.05116 300.70624Q241.14491 301.2375 241.14491 301.9406ZM240.36366 302.0031Q240.36366 301.5656 240.33241 301.2375Q240.31679 300.89374 240.25429 300.64374Q240.19179 300.3781 240.09804 300.1906Q240.00429 300.0031 239.86366 299.8781Q239.73866 299.7531 239.56679 299.70624Q239.39491 299.64374 239.19179 299.64374Q238.81679 299.64374 238.58241 299.83124Q238.34804 300.0031 238.20741 300.3156Q238.08241 300.6125 238.03554 301.03436Q237.98866 301.4406 237.98866 301.90936Q237.98866 302.55 238.05116 303.0031Q238.11366 303.4406 238.25429 303.72186Q238.39491 304.0031 238.61366 304.14374Q238.84804 304.26874 239.16054 304.26874Q239.41054 304.26874 239.59804 304.1906Q239.78554 304.1125 239.91054 303.97186Q240.05116 303.8156 240.12929 303.6125Q240.22304 303.39374 240.26991 303.14374Q240.33241 302.89374 240.34804 302.6125Q240.36366 302.3156 240.36366 302.0031ZM246.14491 301.9406Q246.14491 302.59686 246.03554 303.14374Q245.94179 303.675 245.69179 304.0656Q245.45741 304.45624 245.06679 304.675Q244.69179 304.8781 244.11366 304.8781Q243.58241 304.8781 243.20741 304.6906Q242.84804 304.5031 242.61366 304.1281Q242.39491 303.7531 242.30116 303.22186Q242.20741 302.675 242.20741 301.97186Q242.20741 301.3156 242.31679 300.78436Q242.42616 300.2375 242.66054 299.84686Q242.89491 299.45624 243.28554 299.2531Q243.67616 299.03436 244.23866 299.03436Q244.76991 299.03436 245.12929 299.22186Q245.50429 299.40936 245.72304 299.78436Q245.95741 300.15936 246.05116 300.70624Q246.14491 301.2375 246.14491 301.9406ZM245.36366 302.0031Q245.36366 301.5656 245.33241 301.2375Q245.31679 300.89374 245.25429 300.64374Q245.19179 300.3781 245.09804 300.1906Q245.00429 300.0031 244.86366 299.8781Q244.73866 299.7531 244.56679 299.70624Q244.39491 299.64374 244.19179 299.64374Q243.81679 299.64374 243.58241 299.83124Q243.34804 300.0031 243.20741 300.3156Q243.08241 300.6125 243.03554 301.03436Q242.98866 301.4406 242.98866 301.90936Q242.98866 302.55 243.05116 303.0031Q243.11366 303.4406 243.25429 303.72186Q243.39491 304.0031 243.61366 304.14374Q243.84804 304.26874 244.16054 304.26874Q244.41054 304.26874 244.59804 304.1906Q244.78554 304.1125 244.91054 303.97186Q245.05116 303.8156 245.12929 303.6125Q245.22304 303.39374 245.26991 303.14374Q245.33241 302.89374 245.34804 302.6125Q245.36366 302.3156 245.36366 302.0031ZM251.14491 301.9406Q251.14491 302.59686 251.03554 303.14374Q250.94179 303.675 250.69179 304.0656Q250.45741 304.45624 250.06679 304.675Q249.69179 304.8781 249.11366 304.8781Q248.58241 304.8781 248.20741 304.6906Q247.84804 304.5031 247.61366 304.1281Q247.39491 303.7531 247.30116 303.22186Q247.20741 302.675 247.20741 301.97186Q247.20741 301.3156 247.31679 300.78436Q247.42616 300.2375 247.66054 299.84686Q247.89491 299.45624 248.28554 299.2531Q248.67616 299.03436 249.23866 299.03436Q249.76991 299.03436 250.12929 299.22186Q250.50429 299.40936 250.72304 299.78436Q250.95741 300.15936 251.05116 300.70624Q251.14491 301.2375 251.14491 301.9406ZM250.36366 302.0031Q250.36366 301.5656 250.33241 301.2375Q250.31679 300.89374 250.25429 300.64374Q250.19179 300.3781 250.09804 300.1906Q250.00429 300.0031 249.86366 299.8781Q249.73866 299.7531 249.56679 299.70624Q249.39491 299.64374 249.19179 299.64374Q248.81679 299.64374 248.58241 299.83124Q248.34804 300.0031 248.20741 300.3156Q248.08241 300.6125 248.03554 301.03436Q247.98866 301.4406 247.98866 301.90936Q247.98866 302.55 248.05116 303.0031Q248.11366 303.4406 248.25429 303.72186Q248.39491 304.0031 248.61366 304.14374Q248.84804 304.26874 249.16054 304.26874Q249.41054 304.26874 249.59804 304.1906Q249.78554 304.1125 249.91054 303.97186Q250.05116 303.8156 250.12929 303.6125Q250.22304 303.39374 250.26991 303.14374Q250.33241 302.89374 250.34804 302.6125Q250.36366 302.3156 250.36366 302.0031Z" fill-rule="nonzero"/><path fill="#595959" d="M318.13715 299.4406Q318.13715 299.51874 318.12152 299.58124Q318.12152 299.64374 318.1059 299.70624Q318.1059 299.76874 318.07465 299.83124Q318.05902 299.8781 318.0434 299.9406L315.99652 304.65936Q315.96527 304.70624 315.93402 304.7375Q315.90277 304.76874 315.8559 304.8Q315.80902 304.8156 315.71527 304.8156Q315.63715 304.83124 315.52777 304.83124Q315.38715 304.83124 315.2934 304.8156Q315.21527 304.8 315.1684 304.76874Q315.13715 304.7375 315.13715 304.70624Q315.15277 304.65936 315.1684 304.59686L317.32465 299.78436L314.6059 299.78436Q314.51215 299.78436 314.46527 299.6906Q314.43402 299.59686 314.43402 299.4406Q314.43402 299.3625 314.43402 299.3Q314.44965 299.2375 314.46527 299.20624Q314.49652 299.15936 314.52777 299.14374Q314.55902 299.1125 314.6059 299.1125L317.9184 299.1125Q317.9809 299.1125 318.01215 299.1281Q318.05902 299.14374 318.09027 299.1906Q318.12152 299.22186 318.12152 299.28436Q318.13715 299.34686 318.13715 299.4406ZM323.02777 302.97186Q323.02777 303.425 322.87152 303.78436Q322.7309 304.14374 322.44965 304.39374Q322.1684 304.6281 321.77777 304.7531Q321.38715 304.8781 320.90277 304.8781Q320.63715 304.8781 320.40277 304.84686Q320.1684 304.8156 319.9809 304.76874Q319.7934 304.70624 319.6684 304.65936Q319.55902 304.59686 319.52777 304.5656Q319.49652 304.53436 319.4809 304.5031Q319.46527 304.47186 319.44965 304.4406Q319.44965 304.40936 319.43402 304.34686Q319.43402 304.28436 319.43402 304.20624Q319.43402 304.14374 319.43402 304.08124Q319.44965 304.01874 319.46527 303.9875Q319.49652 303.9406 319.51215 303.925Q319.5434 303.90936 319.57465 303.90936Q319.6059 303.90936 319.69965 303.97186Q319.7934 304.01874 319.94965 304.08124Q320.1059 304.14374 320.34027 304.20624Q320.57465 304.2531 320.88715 304.2531Q321.18402 304.2531 321.4184 304.1906Q321.6684 304.1125 321.84027 303.97186Q322.02777 303.8156 322.12152 303.59686Q322.2309 303.3625 322.2309 303.03436Q322.2309 302.76874 322.13715 302.5656Q322.05902 302.34686 321.87152 302.22186Q321.69965 302.08124 321.4184 302.01874Q321.15277 301.9406 320.77777 301.9406Q320.51215 301.9406 320.30902 301.97186Q320.12152 301.9875 319.96527 301.9875Q319.84027 301.9875 319.77777 301.9406Q319.7309 301.8781 319.7309 301.72186L319.7309 299.39374Q319.7309 299.2531 319.7934 299.1906Q319.87152 299.1125 319.99652 299.1125L322.51215 299.1125Q322.5434 299.1125 322.57465 299.14374Q322.6059 299.15936 322.62152 299.20624Q322.65277 299.2375 322.6684 299.3Q322.68402 299.3625 322.68402 299.4406Q322.68402 299.59686 322.63715 299.6906Q322.59027 299.76874 322.51215 299.76874L320.38715 299.76874L320.38715 301.3625Q320.5434 301.34686 320.69965 301.34686Q320.87152 301.33124 321.07465 301.33124Q321.55902 301.33124 321.9184 301.45624Q322.2934 301.5656 322.52777 301.78436Q322.77777 302.0031 322.90277 302.3Q323.02777 302.59686 323.02777 302.97186ZM328.24652 301.9406Q328.24652 302.59686 328.13715 303.14374Q328.0434 303.675 327.7934 304.0656Q327.55902 304.45624 327.1684 304.675Q326.7934 304.8781 326.21527 304.8781Q325.68402 304.8781 325.30902 304.6906Q324.94965 304.5031 324.71527 304.1281Q324.49652 303.7531 324.40277 303.22186Q324.30902 302.675 324.30902 301.97186Q324.30902 301.3156 324.4184 300.78436Q324.52777 300.2375 324.76215 299.84686Q324.99652 299.45624 325.38715 299.2531Q325.77777 299.03436 326.34027 299.03436Q326.87152 299.03436 327.2309 299.22186Q327.6059 299.40936 327.82465 299.78436Q328.05902 300.15936 328.15277 300.70624Q328.24652 301.2375 328.24652 301.9406ZM327.46527 302.0031Q327.46527 301.5656 327.43402 301.2375Q327.4184 300.89374 327.3559 300.64374Q327.2934 300.3781 327.19965 300.1906Q327.1059 300.0031 326.96527 299.8781Q326.84027 299.7531 326.6684 299.70624Q326.49652 299.64374 326.2934 299.64374Q325.9184 299.64374 325.68402 299.83124Q325.44965 300.0031 325.30902 300.3156Q325.18402 300.6125 325.13715 301.03436Q325.09027 301.4406 325.09027 301.90936Q325.09027 302.55 325.15277 303.0031Q325.21527 303.4406 325.3559 303.72186Q325.49652 304.0031 325.71527 304.14374Q325.94965 304.26874 326.26215 304.26874Q326.51215 304.26874 326.69965 304.1906Q326.88715 304.1125 327.01215 303.97186Q327.15277 303.8156 327.2309 303.6125Q327.32465 303.39374 327.37152 303.14374Q327.43402 302.89374 327.44965 302.6125Q327.46527 302.3156 327.46527 302.0031ZM333.24652 301.9406Q333.24652 302.59686 333.13715 303.14374Q333.0434 303.675 332.7934 304.0656Q332.55902 304.45624 332.1684 304.675Q331.7934 304.8781 331.21527 304.8781Q330.68402 304.8781 330.30902 304.6906Q329.94965 304.5031 329.71527 304.1281Q329.49652 303.7531 329.40277 303.22186Q329.30902 302.675 329.30902 301.97186Q329.30902 301.3156 329.4184 300.78436Q329.52777 300.2375 329.76215 299.84686Q329.99652 299.45624 330.38715 299.2531Q330.77777 299.03436 331.34027 299.03436Q331.87152 299.03436 332.2309 299.22186Q332.6059 299.40936 332.82465 299.78436Q333.05902 300.15936 333.15277 300.70624Q333.24652 301.2375 333.24652 301.9406ZM332.46527 302.0031Q332.46527 301.5656 332.43402 301.2375Q332.4184 300.89374 332.3559 300.64374Q332.2934 300.3781 332.19965 300.1906Q332.1059 300.0031 331.96527 299.8781Q331.84027 299.7531 331.6684 299.70624Q331.49652 299.64374 331.2934 299.64374Q330.9184 299.64374 330.68402 299.83124Q330.44965 300.0031 330.30902 300.3156Q330.18402 300.6125 330.13715 301.03436Q330.09027 301.4406 330.09027 301.90936Q330.09027 302.55 330.15277 303.0031Q330.21527 303.4406 330.3559 303.72186Q330.49652 304.0031 330.71527 304.14374Q330.94965 304.26874 331.26215 304.26874Q331.51215 304.26874 331.69965 304.1906Q331.88715 304.1125 332.01215 303.97186Q332.15277 303.8156 332.2309 303.6125Q332.32465 303.39374 332.37152 303.14374Q332.43402 302.89374 332.44965 302.6125Q332.46527 302.3156 332.46527 302.0031ZM338.24652 301.9406Q338.24652 302.59686 338.13715 303.14374Q338.0434 303.675 337.7934 304.0656Q337.55902 304.45624 337.1684 304.675Q336.7934 304.8781 336.21527 304.8781Q335.68402 304.8781 335.30902 304.6906Q334.94965 304.5031 334.71527 304.1281Q334.49652 303.7531 334.40277 303.22186Q334.30902 302.675 334.30902 301.97186Q334.30902 301.3156 334.4184 300.78436Q334.52777 300.2375 334.76215 299.84686Q334.99652 299.45624 335.38715 299.2531Q335.77777 299.03436 336.34027 299.03436Q336.87152 299.03436 337.2309 299.22186Q337.6059 299.40936 337.82465 299.78436Q338.05902 300.15936 338.15277 300.70624Q338.24652 301.2375 338.24652 301.9406ZM337.46527 302.0031Q337.46527 301.5656 337.43402 301.2375Q337.4184 300.89374 337.3559 300.64374Q337.2934 300.3781 337.19965 300.1906Q337.1059 300.0031 336.96527 299.8781Q336.84027 299.7531 336.6684 299.70624Q336.49652 299.64374 336.2934 299.64374Q335.9184 299.64374 335.68402 299.83124Q335.44965 300.0031 335.30902 300.3156Q335.18402 300.6125 335.13715 301.03436Q335.09027 301.4406 335.09027 301.90936Q335.09027 302.55 335.15277 303.0031Q335.21527 303.4406 335.3559 303.72186Q335.49652 304.0031 335.71527 304.14374Q335.94965 304.26874 336.26215 304.26874Q336.51215 304.26874 336.69965 304.1906Q336.88715 304.1125 337.01215 303.97186Q337.15277 303.8156 337.2309 303.6125Q337.32465 303.39374 337.37152 303.14374Q337.43402 302.89374 337.44965 302.6125Q337.46527 302.3156 337.46527 302.0031ZM343.24652 301.9406Q343.24652 302.59686 343.13715 303.14374Q343.0434 303.675 342.7934 304.0656Q342.55902 304.45624 342.1684 304.675Q341.7934 304.8781 341.21527 304.8781Q340.68402 304.8781 340.30902 304.6906Q339.94965 304.5031 339.71527 304.1281Q339.49652 303.7531 339.40277 303.22186Q339.30902 302.675 339.30902 301.97186Q339.30902 301.3156 339.4184 300.78436Q339.52777 300.2375 339.76215 299.84686Q339.99652 299.45624 340.38715 299.2531Q340.77777 299.03436 341.34027 299.03436Q341.87152 299.03436 342.2309 299.22186Q342.6059 299.40936 342.82465 299.78436Q343.05902 300.15936 343.15277 300.70624Q343.24652 301.2375 343.24652 301.9406ZM342.46527 302.0031Q342.46527 301.5656 342.43402 301.2375Q342.4184 300.89374 342.3559 300.64374Q342.2934 300.3781 342.19965 300.1906Q342.1059 300.0031 341.96527 299.8781Q341.84027 299.7531 341.6684 299.70624Q341.49652 299.64374 341.2934 299.64374Q340.9184 299.64374 340.68402 299.83124Q340.44965 300.0031 340.30902 300.3156Q340.18402 300.6125 340.13715 301.03436Q340.09027 301.4406 340.09027 301.90936Q340.09027 302.55 340.15277 303.0031Q340.21527 303.4406 340.3559 303.72186Q340.49652 304.0031 340.71527 304.14374Q340.94965 304.26874 341.26215 304.26874Q341.51215 304.26874 341.69965 304.1906Q341.88715 304.1125 342.01215 303.97186Q342.15277 303.8156 342.2309 303.6125Q342.32465 303.39374 342.37152 303.14374Q342.43402 302.89374 342.44965 302.6125Q342.46527 302.3156 342.46527 302.0031ZM348.24652 301.9406Q348.24652 302.59686 348.13715 303.14374Q348.0434 303.675 347.7934 304.0656Q347.55902 304.45624 347.1684 304.675Q346.7934 304.8781 346.21527 304.8781Q345.68402 304.8781 345.30902 304.6906Q344.94965 304.5031 344.71527 304.1281Q344.49652 303.7531 344.40277 303.22186Q344.30902 302.675 344.30902 301.97186Q344.30902 301.3156 344.4184 300.78436Q344.52777 300.2375 344.76215 299.84686Q344.99652 299.45624 345.38715 299.2531Q345.77777 299.03436 346.34027 299.03436Q346.87152 299.03436 347.2309 299.22186Q347.6059 299.40936 347.82465 299.78436Q348.05902 300.15936 348.15277 300.70624Q348.24652 301.2375 348.24652 301.9406ZM347.46527 302.0031Q347.46527 301.5656 347.43402 301.2375Q347.4184 300.89374 347.3559 300.64374Q347.2934 300.3781 347.19965 300.1906Q347.1059 300.0031 346.96527 299.8781Q346.84027 299.7531 346.6684 299.70624Q346.49652 299.64374 346.2934 299.64374Q345.9184 299.64374 345.68402 299.83124Q345.44965 300.0031 345.30902 300.3156Q345.18402 300.6125 345.13715 301.03436Q345.09027 301.4406 345.09027 301.90936Q345.09027 302.55 345.15277 303.0031Q345.21527 303.4406 345.3559 303.72186Q345.49652 304.0031 345.71527 304.14374Q345.94965 304.26874 346.26215 304.26874Q346.51215 304.26874 346.69965 304.1906Q346.88715 304.1125 347.01215 303.97186Q347.15277 303.8156 347.2309 303.6125Q347.32465 303.39374 347.37152 303.14374Q347.43402 302.89374 347.44965 302.6125Q347.46527 302.3156 347.46527 302.0031Z" fill-rule="nonzero"/><path fill="#595959" d="M412.67624 304.5031Q412.67624 304.58124 412.6606 304.64374Q412.645 304.70624 412.61374 304.7375Q412.5981 304.76874 412.56686 304.78436Q412.55124 304.8 412.52 304.8L409.5356 304.8Q409.52 304.8 409.48874 304.78436Q409.4575 304.76874 409.42624 304.7375Q409.4106 304.70624 409.395 304.64374Q409.37936 304.58124 409.37936 304.5031Q409.37936 304.425 409.395 304.3625Q409.4106 304.3 409.42624 304.26874Q409.4575 304.2375 409.4731 304.22186Q409.50436 304.1906 409.5356 304.1906L410.7231 304.1906L410.7231 299.8625L409.62936 300.51874Q409.55124 300.5656 409.48874 300.58124Q409.44186 300.58124 409.4106 300.5656Q409.37936 300.53436 409.36374 300.47186Q409.36374 300.39374 409.36374 300.3Q409.36374 300.22186 409.36374 300.175Q409.37936 300.1125 409.37936 300.08124Q409.395 300.05 409.42624 300.01874Q409.4575 299.9875 409.48874 299.97186L410.80124 299.1281Q410.81686 299.1125 410.8325 299.1125Q410.86374 299.09686 410.895 299.09686Q410.94186 299.08124 410.98874 299.08124Q411.05124 299.08124 411.12936 299.08124Q411.23874 299.08124 411.30124 299.09686Q411.37936 299.09686 411.4106 299.1125Q411.4575 299.1281 411.4731 299.15936Q411.48874 299.175 411.48874 299.1906L411.48874 304.1906L412.52 304.1906Q412.55124 304.1906 412.5825 304.22186Q412.61374 304.2375 412.62936 304.26874Q412.645 304.3 412.6606 304.3625Q412.67624 304.425 412.67624 304.5031ZM417.8481 301.9406Q417.8481 302.59686 417.73874 303.14374Q417.645 303.675 417.395 304.0656Q417.1606 304.45624 416.77 304.675Q416.395 304.8781 415.81686 304.8781Q415.2856 304.8781 414.9106 304.6906Q414.55124 304.5031 414.31686 304.1281Q414.0981 303.7531 414.00436 303.22186Q413.9106 302.675 413.9106 301.97186Q413.9106 301.3156 414.02 300.78436Q414.12936 300.2375 414.36374 299.84686Q414.5981 299.45624 414.98874 299.2531Q415.37936 299.03436 415.94186 299.03436Q416.4731 299.03436 416.8325 299.22186Q417.2075 299.40936 417.42624 299.78436Q417.6606 300.15936 417.75436 300.70624Q417.8481 301.2375 417.8481 301.9406ZM417.06686 302.0031Q417.06686 301.5656 417.0356 301.2375Q417.02 300.89374 416.9575 300.64374Q416.895 300.3781 416.80124 300.1906Q416.7075 300.0031 416.56686 299.8781Q416.44186 299.7531 416.27 299.70624Q416.0981 299.64374 415.895 299.64374Q415.52 299.64374 415.2856 299.83124Q415.05124 300.0031 414.9106 300.3156Q414.7856 300.6125 414.73874 301.03436Q414.69186 301.4406 414.69186 301.90936Q414.69186 302.55 414.75436 303.0031Q414.81686 303.4406 414.9575 303.72186Q415.0981 304.0031 415.31686 304.14374Q415.55124 304.26874 415.86374 304.26874Q416.11374 304.26874 416.30124 304.1906Q416.48874 304.1125 416.61374 303.97186Q416.75436 303.8156 416.8325 303.6125Q416.92624 303.39374 416.9731 303.14374Q417.0356 302.89374 417.05124 302.6125Q417.06686 302.3156 417.06686 302.0031ZM422.8481 301.9406Q422.8481 302.59686 422.73874 303.14374Q422.645 303.675 422.395 304.0656Q422.1606 304.45624 421.77 304.675Q421.395 304.8781 420.81686 304.8781Q420.2856 304.8781 419.9106 304.6906Q419.55124 304.5031 419.31686 304.1281Q419.0981 303.7531 419.00436 303.22186Q418.9106 302.675 418.9106 301.97186Q418.9106 301.3156 419.02 300.78436Q419.12936 300.2375 419.36374 299.84686Q419.5981 299.45624 419.98874 299.2531Q420.37936 299.03436 420.94186 299.03436Q421.4731 299.03436 421.8325 299.22186Q422.2075 299.40936 422.42624 299.78436Q422.6606 300.15936 422.75436 300.70624Q422.8481 301.2375 422.8481 301.9406ZM422.06686 302.0031Q422.06686 301.5656 422.0356 301.2375Q422.02 300.89374 421.9575 300.64374Q421.895 300.3781 421.80124 300.1906Q421.7075 300.0031 421.56686 299.8781Q421.44186 299.7531 421.27 299.70624Q421.0981 299.64374 420.895 299.64374Q420.52 299.64374 420.2856 299.83124Q420.05124 300.0031 419.9106 300.3156Q419.7856 300.6125 419.73874 301.03436Q419.69186 301.4406 419.69186 301.90936Q419.69186 302.55 419.75436 303.0031Q419.81686 303.4406 419.9575 303.72186Q420.0981 304.0031 420.31686 304.14374Q420.55124 304.26874 420.86374 304.26874Q421.11374 304.26874 421.30124 304.1906Q421.48874 304.1125 421.61374 303.97186Q421.75436 303.8156 421.8325 303.6125Q421.92624 303.39374 421.9731 303.14374Q422.0356 302.89374 422.05124 302.6125Q422.06686 302.3156 422.06686 302.0031ZM427.8481 301.9406Q427.8481 302.59686 427.73874 303.14374Q427.645 303.675 427.395 304.0656Q427.1606 304.45624 426.77 304.675Q426.395 304.8781 425.81686 304.8781Q425.2856 304.8781 424.9106 304.6906Q424.55124 304.5031 424.31686 304.1281Q424.0981 303.7531 424.00436 303.22186Q423.9106 302.675 423.9106 301.97186Q423.9106 301.3156 424.02 300.78436Q424.12936 300.2375 424.36374 299.84686Q424.5981 299.45624 424.98874 299.2531Q425.37936 299.03436 425.94186 299.03436Q426.4731 299.03436 426.8325 299.22186Q427.2075 299.40936 427.42624 299.78436Q427.6606 300.15936 427.75436 300.70624Q427.8481 301.2375 427.8481 301.9406ZM427.06686 302.0031Q427.06686 301.5656 427.0356 301.2375Q427.02 300.89374 426.9575 300.64374Q426.895 300.3781 426.80124 300.1906Q426.7075 300.0031 426.56686 299.8781Q426.44186 299.7531 426.27 299.70624Q426.0981 299.64374 425.895 299.64374Q425.52 299.64374 425.2856 299.83124Q425.05124 300.0031 424.9106 300.3156Q424.7856 300.6125 424.73874 301.03436Q424.69186 301.4406 424.69186 301.90936Q424.69186 302.55 424.75436 303.0031Q424.81686 303.4406 424.9575 303.72186Q425.0981 304.0031 425.31686 304.14374Q425.55124 304.26874 425.86374 304.26874Q426.11374 304.26874 426.30124 304.1906Q426.48874 304.1125 426.61374 303.97186Q426.75436 303.8156 426.8325 303.6125Q426.92624 303.39374 426.9731 303.14374Q427.0356 302.89374 427.05124 302.6125Q427.06686 302.3156 427.06686 302.0031ZM432.8481 301.9406Q432.8481 302.59686 432.73874 303.14374Q432.645 303.675 432.395 304.0656Q432.1606 304.45624 431.77 304.675Q431.395 304.8781 430.81686 304.8781Q430.2856 304.8781 429.9106 304.6906Q429.55124 304.5031 429.31686 304.1281Q429.0981 303.7531 429.00436 303.22186Q428.9106 302.675 428.9106 301.97186Q428.9106 301.3156 429.02 300.78436Q429.12936 300.2375 429.36374 299.84686Q429.5981 299.45624 429.98874 299.2531Q430.37936 299.03436 430.94186 299.03436Q431.4731 299.03436 431.8325 299.22186Q432.2075 299.40936 432.42624 299.78436Q432.6606 300.15936 432.75436 300.70624Q432.8481 301.2375 432.8481 301.9406ZM432.06686 302.0031Q432.06686 301.5656 432.0356 301.2375Q432.02 300.89374 431.9575 300.64374Q431.895 300.3781 431.80124 300.1906Q431.7075 300.0031 431.56686 299.8781Q431.44186 299.7531 431.27 299.70624Q431.0981 299.64374 430.895 299.64374Q430.52 299.64374 430.2856 299.83124Q430.05124 300.0031 429.9106 300.3156Q429.7856 300.6125 429.73874 301.03436Q429.69186 301.4406 429.69186 301.90936Q429.69186 302.55 429.75436 303.0031Q429.81686 303.4406 429.9575 303.72186Q430.0981 304.0031 430.31686 304.14374Q430.55124 304.26874 430.86374 304.26874Q431.11374 304.26874 431.30124 304.1906Q431.48874 304.1125 431.61374 303.97186Q431.75436 303.8156 431.8325 303.6125Q431.92624 303.39374 431.9731 303.14374Q432.0356 302.89374 432.05124 302.6125Q432.06686 302.3156 432.06686 302.0031ZM437.8481 301.9406Q437.8481 302.59686 437.73874 303.14374Q437.645 303.675 437.395 304.0656Q437.1606 304.45624 436.77 304.675Q436.395 304.8781 435.81686 304.8781Q435.2856 304.8781 434.9106 304.6906Q434.55124 304.5031 434.31686 304.1281Q434.0981 303.7531 434.00436 303.22186Q433.9106 302.675 433.9106 301.97186Q433.9106 301.3156 434.02 300.78436Q434.12936 300.2375 434.36374 299.84686Q434.5981 299.45624 434.98874 299.2531Q435.37936 299.03436 435.94186 299.03436Q436.4731 299.03436 436.8325 299.22186Q437.2075 299.40936 437.42624 299.78436Q437.6606 300.15936 437.75436 300.70624Q437.8481 301.2375 437.8481 301.9406ZM437.06686 302.0031Q437.06686 301.5656 437.0356 301.2375Q437.02 300.89374 436.9575 300.64374Q436.895 300.3781 436.80124 300.1906Q436.7075 300.0031 436.56686 299.8781Q436.44186 299.7531 436.27 299.70624Q436.0981 299.64374 435.895 299.64374Q435.52 299.64374 435.2856 299.83124Q435.05124 300.0031 434.9106 300.3156Q434.7856 300.6125 434.73874 301.03436Q434.69186 301.4406 434.69186 301.90936Q434.69186 302.55 434.75436 303.0031Q434.81686 303.4406 434.9575 303.72186Q435.0981 304.0031 435.31686 304.14374Q435.55124 304.26874 435.86374 304.26874Q436.11374 304.26874 436.30124 304.1906Q436.48874 304.1125 436.61374 303.97186Q436.75436 303.8156 436.8325 303.6125Q436.92624 303.39374 436.9731 303.14374Q437.0356 302.89374 437.05124 302.6125Q437.06686 302.3156 437.06686 302.0031ZM442.8481 301.9406Q442.8481 302.59686 442.73874 303.14374Q442.645 303.675 442.395 304.0656Q442.1606 304.45624 441.77 304.675Q441.395 304.8781 440.81686 304.8781Q440.2856 304.8781 439.9106 304.6906Q439.55124 304.5031 439.31686 304.1281Q439.0981 303.7531 439.00436 303.22186Q438.9106 302.675 438.9106 301.97186Q438.9106 301.3156 439.02 300.78436Q439.12936 300.2375 439.36374 299.84686Q439.5981 299.45624 439.98874 299.2531Q440.37936 299.03436 440.94186 299.03436Q441.4731 299.03436 441.8325 299.22186Q442.2075 299.40936 442.42624 299.78436Q442.6606 300.15936 442.75436 300.70624Q442.8481 301.2375 442.8481 301.9406ZM442.06686 302.0031Q442.06686 301.5656 442.0356 301.2375Q442.02 300.89374 441.9575 300.64374Q441.895 300.3781 441.80124 300.1906Q441.7075 300.0031 441.56686 299.8781Q441.44186 299.7531 441.27 299.70624Q441.0981 299.64374 440.895 299.64374Q440.52 299.64374 440.2856 299.83124Q440.05124 300.0031 439.9106 300.3156Q439.7856 300.6125 439.73874 301.03436Q439.69186 301.4406 439.69186 301.90936Q439.69186 302.55 439.75436 303.0031Q439.81686 303.4406 439.9575 303.72186Q440.0981 304.0031 440.31686 304.14374Q440.55124 304.26874 440.86374 304.26874Q441.11374 304.26874 441.30124 304.1906Q441.48874 304.1125 441.61374 303.97186Q441.75436 303.8156 441.8325 303.6125Q441.92624 303.39374 441.9731 303.14374Q442.0356 302.89374 442.05124 302.6125Q442.06686 302.3156 442.06686 302.0031ZM447.8481 301.9406Q447.8481 302.59686 447.73874 303.14374Q447.645 303.675 447.395 304.0656Q447.1606 304.45624 446.77 304.675Q446.395 304.8781 445.81686 304.8781Q445.2856 304.8781 444.9106 304.6906Q444.55124 304.5031 444.31686 304.1281Q444.0981 303.7531 444.00436 303.22186Q443.9106 302.675 443.9106 301.97186Q443.9106 301.3156 444.02 300.78436Q444.12936 300.2375 444.36374 299.84686Q444.5981 299.45624 444.98874 299.2531Q445.37936 299.03436 445.94186 299.03436Q446.4731 299.03436 446.8325 299.22186Q447.2075 299.40936 447.42624 299.78436Q447.6606 300.15936 447.75436 300.70624Q447.8481 301.2375 447.8481 301.9406ZM447.06686 302.0031Q447.06686 301.5656 447.0356 301.2375Q447.02 300.89374 446.9575 300.64374Q446.895 300.3781 446.80124 300.1906Q446.7075 300.0031 446.56686 299.8781Q446.44186 299.7531 446.27 299.70624Q446.0981 299.64374 445.895 299.64374Q445.52 299.64374 445.2856 299.83124Q445.05124 300.0031 444.9106 300.3156Q444.7856 300.6125 444.73874 301.03436Q444.69186 301.4406 444.69186 301.90936Q444.69186 302.55 444.75436 303.0031Q444.81686 303.4406 444.9575 303.72186Q445.0981 304.0031 445.31686 304.14374Q445.55124 304.26874 445.86374 304.26874Q446.11374 304.26874 446.30124 304.1906Q446.48874 304.1125 446.61374 303.97186Q446.75436 303.8156 446.8325 303.6125Q446.92624 303.39374 446.9731 303.14374Q447.0356 302.89374 447.05124 302.6125Q447.06686 302.3156 447.06686 302.0031Z" fill-rule="nonzero"/></svg>